<?xml version="1.0" standalone="no"?><!DOCTYPE svg PUBLIC "-//W3C//DTD SVG 1.1//EN" "http://www.w3.org/Graphics/SVG/1.1/DTD/svg11.dtd"><svg t="1545404612625" class="icon" style="" viewBox="0 0 1024 1024" version="1.1" xmlns="http://www.w3.org/2000/svg" p-id="2010" xmlns:xlink="http://www.w3.org/1999/xlink" width="200" height="200"><defs><style type="text/css">@font-face { font-family: uc-nexus-iconfont; src: url("chrome-extension://pogijhnlcfmcppgimcaccdkmbedjkmhi/res/font_9qmmi8b8jsxxbt9.woff") format("woff"), url("chrome-extension://pogijhnlcfmcppgimcaccdkmbedjkmhi/res/font_9qmmi8b8jsxxbt9.ttf") format("truetype"); }
</style></defs><path d="M298.666667 341.333333l213.333333 0 0 42.666667-213.333333 0 0-42.666667Z" fill="#bfbfbf" p-id="2011"></path><path d="M618.666667 320H768A64 64 0 0 1 832 384v426.666667h-42.666667V384a21.333333 21.333333 0 0 0-21.333333-21.333333h-149.333333V810.666667h-42.666667V256a21.333333 21.333333 0 0 0-21.333333-21.333333H256a21.333333 21.333333 0 0 0-21.333333 21.333333v554.666667h-42.666667V256A64 64 0 0 1 256 192h298.666667A64 64 0 0 1 618.666667 256v64z" fill="#bfbfbf" p-id="2012"></path><path d="M128 810.666667l768 0 0 42.666666-768 0 0-42.666666Z" fill="#bfbfbf" p-id="2013"></path></svg>