<?xml version="1.0" standalone="no"?><!DOCTYPE svg PUBLIC "-//W3C//DTD SVG 1.1//EN" "http://www.w3.org/Graphics/SVG/1.1/DTD/svg11.dtd"><svg t="1545403156204" class="icon" style="" viewBox="0 0 1024 1024" version="1.1" xmlns="http://www.w3.org/2000/svg" p-id="2202" xmlns:xlink="http://www.w3.org/1999/xlink" width="200" height="200"><defs><style type="text/css">@font-face { font-family: uc-nexus-iconfont; src: url("chrome-extension://pogijhnlcfmcppgimcaccdkmbedjkmhi/res/font_9qmmi8b8jsxxbt9.woff") format("woff"), url("chrome-extension://pogijhnlcfmcppgimcaccdkmbedjkmhi/res/font_9qmmi8b8jsxxbt9.ttf") format("truetype"); }
</style></defs><path d="M565.3334375 885.333125h-480V138.666875h693.3328125V512h-53.3325V192.0003125H138.666875v639.999375H512z" fill="#707070" p-id="2203"></path><path d="M698.6665625 512c101.3334375 0 186.6665625 85.333125 186.6665625 186.6665625S800 885.333125 698.6675 885.333125 512 800 512 698.6675 597.333125 512 698.6665625 512m0-53.3334375c-133.333125 0-240 106.666875-240 240s106.666875 240 240 240 240-106.666875 240-240-106.666875-240-240-240zM245.33375 85.334375h53.3325v160.0003125h-53.3325z m319.9996875 0h53.3334375v160.0003125h-53.334375zM192.0003125 351.9996875h480v53.334375h-480z m0 160.0003125H458.665625v53.3334375H192.0003125z m0 160.0003125h213.3328125v53.3334375H192.0003125z" fill="#707070" p-id="2204"></path><path d="M831.9996875 778.66625H672.0003125V565.334375h53.3334375v160.0003125h106.6659375z" fill="#707070" p-id="2205"></path></svg>