<?xml version="1.0" standalone="no"?><!DOCTYPE svg PUBLIC "-//W3C//DTD SVG 1.1//EN" "http://www.w3.org/Graphics/SVG/1.1/DTD/svg11.dtd"><svg t="1545402803947" class="icon" style="" viewBox="0 0 1024 1024" version="1.1" xmlns="http://www.w3.org/2000/svg" p-id="1997" xmlns:xlink="http://www.w3.org/1999/xlink" width="200" height="200"><defs><style type="text/css">@font-face { font-family: uc-nexus-iconfont; src: url("chrome-extension://pogijhnlcfmcppgimcaccdkmbedjkmhi/res/font_9qmmi8b8jsxxbt9.woff") format("woff"), url("chrome-extension://pogijhnlcfmcppgimcaccdkmbedjkmhi/res/font_9qmmi8b8jsxxbt9.ttf") format("truetype"); }
</style></defs><path d="M756.5312 341.6064c0-144.1792-116.9408-261.12-261.12-261.12s-261.12 116.9408-261.12 261.12c0 102.6048 59.1872 191.2832 145.2032 233.984-144.7936 55.5008-248.9344 192.9216-255.7952 355.5328l0 0c0 0.512 0 1.024 0 1.536 0 14.0288 11.3664 25.3952 25.3952 25.3952 14.0288 0 25.3952-11.3664 25.3952-25.3952 0-0.512 0-1.024 0-1.536l0.1024 0c8.192-169.8816 138.1376-307.8144 304.4352-328.4992l0-0.512c5.5296 0.3072 10.9568 0.512 16.5888 0.512C639.5904 602.7264 756.5312 485.7856 756.5312 341.6064zM495.4112 552.0384c-116.224 0-210.432-94.208-210.432-210.432s94.208-210.432 210.432-210.432 210.432 94.208 210.432 210.432S611.6352 552.0384 495.4112 552.0384z" fill="#707070" p-id="1998"></path><path d="M896.2048 799.4368 822.272 799.4368l0-73.9328c0-15.5648-12.6976-28.2624-28.2624-28.2624l0 0c-15.5648 0-28.2624 12.6976-28.2624 28.2624l0 73.9328-73.9328 0c-15.5648 0-28.2624 12.6976-28.2624 28.2624l0 0c0 15.5648 12.6976 28.2624 28.2624 28.2624l73.9328 0L765.7472 929.792c0 15.5648 12.6976 28.2624 28.2624 28.2624l0 0c15.5648 0 28.2624-12.6976 28.2624-28.2624l0-73.9328 73.9328 0c15.5648 0 28.2624-12.6976 28.2624-28.2624l0 0C924.3648 812.1344 911.6672 799.4368 896.2048 799.4368z" fill="#707070" p-id="1999"></path></svg>