<?xml version="1.0" standalone="no"?><!DOCTYPE svg PUBLIC "-//W3C//DTD SVG 1.1//EN" "http://www.w3.org/Graphics/SVG/1.1/DTD/svg11.dtd"><svg t="1545402746678" class="icon" style="" viewBox="0 0 1024 1024" version="1.1" xmlns="http://www.w3.org/2000/svg" p-id="2135" xmlns:xlink="http://www.w3.org/1999/xlink" width="200" height="200"><defs><style type="text/css">@font-face { font-family: uc-nexus-iconfont; src: url("chrome-extension://pogijhnlcfmcppgimcaccdkmbedjkmhi/res/font_9qmmi8b8jsxxbt9.woff") format("woff"), url("chrome-extension://pogijhnlcfmcppgimcaccdkmbedjkmhi/res/font_9qmmi8b8jsxxbt9.ttf") format("truetype"); }
</style></defs><path d="M508.69283 391.86138125c63.13625625 0 114.51560812 51.37935187 114.51560812 114.51560812s-51.37935187 114.51560812-114.51560812 114.51560813-114.51560812-51.37935187-114.51560812-114.51560812S445.55657375 391.86138125 508.69283 391.86138125M508.69283 340.96563875c-91.35799687 0-165.41153812 74.05354125-165.41153812 165.41153812s74.05335469 165.41153812 165.41153812 165.41153813 165.41153812-74.05354125 165.41153812-165.41153813S600.05082688 340.96563875 508.69283 340.96563875M917.61670438 607.3652075c7.27325625-31.01472187 10.97893125-62.95038188 10.97893125-95.36421844 0-32.41383563-3.705675-64.34949562-10.97893125-95.36421843-3.21044813-13.68984375-16.91078438-22.18495875-30.60044063-18.97451063-13.68984375 3.21044813-22.18495875 16.91078438-18.97451062 30.60044063 6.38098594 27.20955187 9.63396844 55.24429406 9.63396843 83.73828749s-3.25298156 56.52873562-9.63396843 83.7382875c-3.21044813 13.68984375 5.28466688 27.3899925 18.97451062 30.60044063C900.70592 629.55016625 914.40625625 621.05505031 917.61670438 607.3652075L917.61670438 607.3652075zM887.53603625 626.91045594c1.61047031 0 2.95824469 0.02435813 4.18722375 0.07776 14.04791344 0.61083562 25.93129312-10.28209125 26.54194219-24.33000469 0.61083562-14.04791344-10.28209125-25.93110656-24.33000469-26.54175469-2.03730656-0.0886275-4.10084438-0.12591469-6.39897375-0.12591469-14.06121656 0-25.45986281 11.39883375-25.45986281 25.46005032C862.07617344 615.51162125 873.47481969 626.91045594 887.53603625 626.91045594L887.53603625 626.91045594zM804.40895937 780.07304938c-10.39395281-15.96492563-16.00596-34.56469031-16.00595999-54.02955563 0-54.75000469 44.38303312-99.13303781 99.13303781-99.13303781 14.06102906 0 25.45986281-11.39883375 25.45986281-25.46005031 0-14.06102906-11.39883375-25.46005031-25.45986281-25.46005032-82.87243781 0-150.05295187 67.18070156-150.05295188 150.05295188 0 29.40949781 8.51966156 57.64566656 24.25261969 81.81153187 7.67179875 11.78388562 23.44372969 15.11743781 35.22761531 7.44545157C808.747205 807.62867844 812.08075812 791.8567475 804.40895937 780.07304938L804.40895937 780.07304938zM632.10977844 911.00384c63.3522975-19.0271625 121.07422406-52.96302844 168.61261781-98.69083781 10.13387906-9.74789063 10.44660469-25.86533813 0.69871406-35.99903063s-25.86533813-10.44660469-35.99903062-0.69871406c-41.74257375 40.15271438-92.39641781 69.9330225-147.95943375 86.62083375-13.46686969 4.04463281-21.10512844 18.24057-17.06049563 31.70743969C604.44678313 907.41021406 618.64272125 915.04847281 632.10977844 911.00384L632.10977844 911.00384zM422.27866812 897.45921125c16.22631094-34.48618125 50.93621531-56.96437781 89.72241844-56.96437781 38.79313594 0 73.52458781 22.48494281 89.74790063 56.96437781 5.98637906 12.72318656 21.15365812 18.18435844 33.87665625 12.19797937 12.72318656-5.98656656 18.18435844-21.15365812 12.19797937-33.87665625-24.546045-52.1681925-77.12196094-86.205615-135.82253719-86.205615-58.69664156 0-111.24913594 34.03330031-135.797055 86.205615-5.98637906 12.72299906-0.52539375 27.89027812 12.19779282 33.87665625C401.12501094 915.64356969 416.2921025 910.18239687 422.27866812 897.45921125L422.27866812 897.45921125zM224.42219 813.40145188c47.33322094 45.16681406 104.63880469 78.7052625 167.4889425 97.60032656 13.46574563 4.04838 27.66374438-3.58594406 31.71212437-17.05168875 4.04838-13.46574563-3.58594406-27.66374438-17.05168875-31.71212438-55.13393156-16.57538719-105.42933188-46.01111719-146.99633624-85.67553656-10.17285281-9.70723125-26.28880125-9.32967469-35.9960325 0.84317813S214.24933719 803.69422156 224.42219 813.40145188L224.42219 813.40145188zM138.19652656 626.91045594c54.75000469 0 99.13303781 44.38303312 99.13303782 99.13303781 0 19.80251156-5.80593844 38.71069125-16.53172875 54.84106781-7.78572094 11.70893625-4.60543969 27.51234656 7.10330906 35.298255 11.70893625 7.78572094 27.51234656 4.60562719 35.298255-7.10330906 16.23717844-24.41881875 25.05007875-53.1200475 25.05007875-83.03582625 0-82.87225031-67.18070156-150.05295187-150.05295188-150.05295188-14.06121656 0-25.46005031 11.39883375-25.46005031 25.46005032C112.73666281 615.51162125 124.1354975 626.91045594 138.19652656 626.91045594L138.19652656 626.91045594zM132.59519937 627.05023625c1.71633656-0.09424875 3.57132844-0.13978031 5.60132719-0.13978031 14.06121656 0 25.46005031-11.39883375 25.46005032-25.46005032 0-14.06102906-11.39883375-25.46005031-25.46005032-25.46005031-2.91814688 0-5.69388938 0.06801656-8.39505843 0.21660281-14.04004313 0.77141437-24.79618781 12.77846156-24.02477344 26.81850469C106.54829656 617.06531844 118.55515531 627.82165062 132.59519937 627.05023625L132.59519937 627.05023625zM106.40982781 416.56538187c-7.28468625 31.09060781-11.00328937 63.04781625-11.00328937 95.43560719 0 32.38779094 3.71841656 64.34518687 11.00328937 95.43560719 3.207825 13.69040531 16.90628719 22.18814438 30.5966925 18.98050594 13.69040531-3.207825 22.18814438-16.90647469 18.98050594-30.5966925-6.39541406-27.29555625-9.66057469-55.35559406-9.66057469-83.81942063 0-28.46382656 3.26497406-56.52405187 9.66057469-83.81942062 3.207825-13.69040531-5.29010063-27.389055-18.98050594-30.5966925C123.316115 394.37705094 109.61746531 402.87497656 106.40982781 416.56538187L106.40982781 416.56538187zM138.19652656 397.09152313c-2.03018625 0-3.88517812-0.04553156-5.60132718-0.13978032-14.04004313-0.77141437-26.04690281 9.98491781-26.81850469 24.02477344-0.77141437 14.04004313 9.98491781 26.04690281 24.02477344 26.81850469 2.70098156 0.14839969 5.47691156 0.21641531 8.39505843 0.21641531 14.06121656 0 25.46005031-11.39883375 25.46005032-25.46005031C163.65657687 408.49035688 152.25774312 397.09152313 138.19652656 397.09152313L138.19652656 397.09152313zM220.79783469 243.117605c10.72728937 16.13243719 16.53172875 35.04117937 16.53172875 54.86636344 0 54.74363344-44.37666281 99.10755469-99.13303781 99.10755468-14.06121656 0-25.46005031 11.39883375-25.46005032 25.46005032 0 14.06121656 11.39883375 25.46005031 25.46005032 25.46005031 82.8756225 0 150.05295187-67.15840406 150.05295187-150.02746875 0-29.93713969-8.81083875-58.639305-25.05007875-83.06130938-7.78572094-11.70893625-23.58931875-14.8892175-35.298255-7.10330906S213.01211375 231.40866875 220.79783469 243.117605L220.79783469 243.117605zM391.9111325 113.00019969c-62.85013781 18.89525156-120.15572156 52.4335125-167.4889425 97.60032656-10.17285281 9.70723125-10.55022188 25.82317969-0.84299062 35.9960325 9.70723125 10.17285281 25.82317969 10.55022188 35.9960325 0.84299063 41.56700531-39.66460781 91.86240469-69.10015031 146.99633624-85.67553657 13.46574563-4.04838 21.10006875-18.24637875 17.05168875-31.71212437C419.57487688 116.58633031 405.37687813 108.95200625 391.9111325 113.00019969L391.9111325 113.00019969zM601.74898812 126.54276781c-16.22200125 34.47681188-50.9517675 56.96456531-89.72241843 56.96456532-38.80887469 0-73.52046562-22.47576187-89.74790063-56.96456532-5.98637906-12.72318656-21.15365812-18.18435844-33.87665625-12.19779281-12.72318656 5.98637906-18.18435844 21.15365812-12.19779281 33.87665625 24.54979313 52.17606188 77.10472312 86.205615 135.82253719 86.205615 58.67940281 0 111.25288312-34.04116969 135.797055-86.205615 5.98637906-12.72318656 0.52520625-27.89027812-12.19797938-33.87665625C622.90264531 108.35840937 607.73536625 113.81958125 601.74898812 126.54276781L601.74898812 126.54276781zM800.7169625 211.68391719c-47.53614562-45.69820406-105.25301344-79.63107281-168.59781563-98.68278094-13.46537062-4.04987906-27.66411844 3.58294594-31.71399749 17.04812906s3.58294594 27.66411844 17.04831656 31.7139975c55.56844969 16.71273094 106.2277275 46.49641312 147.97423593 86.62889063 10.13668969 9.7448925 26.25394969 9.42710813 35.99884313-0.70958156S810.85365219 221.42880969 800.7169625 211.68391719L800.7169625 211.68391719zM887.53603625 397.09152313c-54.7565625 0-99.13303781-44.36392125-99.13303781-99.10755469 0-19.48753781 5.61069562-38.08786406 16.00596-54.05485125 7.67179875-11.78388562 4.33824656-27.5558175-7.44563906-35.22761531-11.78388562-7.67179875-27.5558175-4.33824656-35.22761532 7.44563906-15.73520625 24.16905094-24.25261969 52.40615625-24.25261968 81.83701406 0 82.86906469 67.17732844 150.02746875 150.05295187 150.02746875 14.06102906 0 25.45986281-11.39883375 25.45986281-25.46005031C912.9959 408.49035688 901.59706531 397.09152313 887.53603625 397.09152313L887.53603625 397.09152313zM891.72326 397.01395062c-1.22897906 0.05340094-2.57656594 0.07776-4.18722375 0.07776-14.06121656 0-25.45986281 11.39883375-25.45986281 25.46005032 0 14.06121656 11.39864625 25.46005031 25.45986281 25.46005031 2.29831688 0 4.36185562-0.03728719 6.39897375-0.12572719 14.04791344-0.61083562 24.94084031-12.49402875 24.33000469-26.54194219C917.65436656 407.29604188 905.77117344 396.403115 891.72326 397.01395062L891.72326 397.01395062z" fill="#8a8a8a" p-id="2136"></path></svg>