<?xml version="1.0" standalone="no"?><!DOCTYPE svg PUBLIC "-//W3C//DTD SVG 1.1//EN" "http://www.w3.org/Graphics/SVG/1.1/DTD/svg11.dtd"><svg t="1545404620814" class="icon" style="" viewBox="0 0 1024 1024" version="1.1" xmlns="http://www.w3.org/2000/svg" p-id="2272" xmlns:xlink="http://www.w3.org/1999/xlink" width="200" height="200"><defs><style type="text/css">@font-face { font-family: uc-nexus-iconfont; src: url("chrome-extension://pogijhnlcfmcppgimcaccdkmbedjkmhi/res/font_9qmmi8b8jsxxbt9.woff") format("woff"), url("chrome-extension://pogijhnlcfmcppgimcaccdkmbedjkmhi/res/font_9qmmi8b8jsxxbt9.ttf") format("truetype"); }
</style></defs><path d="M490.66666667 490.666667V469.333333h42.666667v25.6c12.8 4.266667 25.6 8.533333 38.4 17.066667l17.066666-17.066667 29.866667 29.866667-17.066667 17.066667c8.533333 12.8 12.8 25.6 17.066667 38.4h25.6v42.666666H618.66666667c-4.266667 12.8-8.533333 25.6-17.066667 38.4l17.066667 17.066667-29.866667 29.866667-17.066666-17.066667c-12.8 8.533333-25.6 12.8-38.4 17.066667v17.066666h-42.666667v-25.6c-12.8-4.266667-25.6-8.533333-38.4-17.066666l-17.066667 17.066666-29.866666-25.6 17.066666-17.066666c-8.533333-12.8-12.8-25.6-17.066666-38.4h-21.333334v-42.666667h25.6c4.266667-12.8 8.533333-25.6 17.066667-38.4l-21.333333-17.066667 29.866666-29.866666 17.066667 17.066666c12.8-8.533333 25.6-12.8 38.4-17.066666z m328.533333 320v-42.666667h85.333334v-217.6l-234.666667-234.666667-21.333333 21.333334-29.866667-29.866667L669.86666667 256l320 320h-42.666667V810.666667h-128zM196.26666667 810.666667h-128v-234.666667H21.33333367L341.33333367 256l51.2 51.2-29.866667 29.866667-21.333333-21.333334L106.66666667 550.4V768h85.333333v42.666667z m597.333333-234.666667V810.666667h-554.666666v-234.666667H191.99999967L511.99999967 256l320 320h-38.4z m-512-25.6V768h469.333334v-217.6l-234.666667-234.666667-234.666667 234.666667z m230.4 110.933333c34.133333 0 64-29.866667 64-64s-29.866667-64-64-64-64 29.866667-64 64 29.866667 64 64 64z m0-42.666666c-12.8 0-21.333333-8.533333-21.333333-21.333334s8.533333-21.333333 21.333333-21.333333 21.333333 8.533333 21.333334 21.333333-8.533333 21.333333-21.333334 21.333334z" fill="#bfbfbf" p-id="2273"></path></svg>