<?xml version="1.0" standalone="no"?><!DOCTYPE svg PUBLIC "-//W3C//DTD SVG 1.1//EN" "http://www.w3.org/Graphics/SVG/1.1/DTD/svg11.dtd"><svg t="1545402814114" class="icon" style="" viewBox="0 0 1170 1024" version="1.1" xmlns="http://www.w3.org/2000/svg" p-id="2246" xmlns:xlink="http://www.w3.org/1999/xlink" width="228.515625" height="200"><defs><style type="text/css">@font-face { font-family: uc-nexus-iconfont; src: url("chrome-extension://pogijhnlcfmcppgimcaccdkmbedjkmhi/res/font_9qmmi8b8jsxxbt9.woff") format("woff"), url("chrome-extension://pogijhnlcfmcppgimcaccdkmbedjkmhi/res/font_9qmmi8b8jsxxbt9.ttf") format("truetype"); }
</style></defs><path d="M1017.8602956 162.40711396c-3.85686738-3.47118047-3.85686738-3.47118047-7.64945331-3.47118047-3.85686738 0-3.85686738-3.47118047-7.64945421-3.47118134-11.37775869-3.47118047-26.61238477-6.94236094-41.84701084-10.4135414h-186.60809882v-44.99678585c0-20.76280224-19.02721201-38.0544249-41.91129229-38.0544249H420.04585391c-22.8840794 0-41.91129229 17.35590322-41.91129229 38.0544249v48.46796632H206.69680742C126.73109023 148.52239122 62 207.4038998 62 280.04156826v550.37497325c0 48.46796631 30.46925214 93.46475214 72.38054443 114.22755526h7.58517188c15.23462607 10.34926084 30.46925214 17.29162178 49.49646504 17.29162179h754.01756982c79.96571631 0 144.69680742-58.81722715 144.69680742-131.51917705V280.04156826c3.85686738-48.46796631-26.67666621-93.46475214-72.38054443-117.6344543z m-556.0317123-3.47118047c0-6.94236094 11.44204013-10.41354229 22.88408027-10.41354227h186.60809883c11.37775869 0 22.81979883 6.94236094 22.81979883 10.41354227v20.76280226c0 6.87808037-11.44204013 10.34926084-22.81979883 10.34926083H484.71266357c-11.44204013 0-22.8840794-6.87808037-22.88408027-10.34926083v-20.76280226z m-19.02721202 121.10563477c95.20034326 0 171.37347363 69.23076943 171.37347364 152.34626075 0 86.52239121-76.17313037 155.75316065-171.37347364 155.75316064-95.13606182 0-167.58088682-69.23076943-167.5808868-155.75316064-3.79258594-83.11549219 72.38054443-152.34626074 167.5808868-152.34626075zM180.02014121 826.94536104c0-131.51917705 118.08442266-238.80437138 262.78123008-238.80437139h3.85686738c144.63252597 0 262.71694863 107.28519433 262.71694864 238.80437139H180.02014121z m799.72144892-311.5063213H762.66423828c-11.37775869 0-22.81979883-10.41354229-22.81979883-20.76280224 0-10.41354229 11.44204013-20.76280224 22.81979883-20.76280312h217.07735185c11.44204013 0 22.81979883 10.34926084 22.81979795 20.76280312 0 10.34926084-11.37775869 20.76280224-22.81979795 20.76280224z m0-128.04799657H762.66423828c-11.37775869 0-22.81979883-10.41354229-22.81979883-20.82708369 0-10.34926084 11.44204013-20.76280224 22.81979883-20.76280225h217.07735185c11.44204013 0 22.81979883 10.41354229 22.81979795 20.76280225 0 10.41354229-11.37775869 20.82708369-22.81979795 20.82708369z" fill="#707070" p-id="2247"></path></svg>