<?xml version="1.0" standalone="no"?><!DOCTYPE svg PUBLIC "-//W3C//DTD SVG 1.1//EN" "http://www.w3.org/Graphics/SVG/1.1/DTD/svg11.dtd"><svg t="1545402757494" class="icon" style="" viewBox="0 0 1024 1024" version="1.1" xmlns="http://www.w3.org/2000/svg" p-id="2397" xmlns:xlink="http://www.w3.org/1999/xlink" width="200" height="200"><defs><style type="text/css">@font-face { font-family: uc-nexus-iconfont; src: url("chrome-extension://pogijhnlcfmcppgimcaccdkmbedjkmhi/res/font_9qmmi8b8jsxxbt9.woff") format("woff"), url("chrome-extension://pogijhnlcfmcppgimcaccdkmbedjkmhi/res/font_9qmmi8b8jsxxbt9.ttf") format("truetype"); }
</style></defs><path d="M808.63085938 149.45117213H215.36914062C187.35400365 149.45117213 165.93066406 170.87451172 165.93066406 198.88964869v626.22070262c0 28.01513697 21.42333959 49.43847655 49.43847656 49.43847656h593.26171875c28.01513697 0 49.43847655-21.42333959 49.43847657-49.43847656V198.88964869c0-28.01513697-21.42333959-49.43847655-49.43847657-49.43847656z m16.47949193 675.65917918c0 9.88769531-6.59179662 16.47949193-16.47949194 16.47949269H215.36914062c-9.88769531 0-16.47949193-6.59179662-16.47949193-16.47949269V198.88964869c0-9.88769531 6.59179662-16.47949193 16.47949194-16.47949269h593.26171875c9.88769531 0 16.47949193 6.59179662 16.47949193 16.47949269v626.22070262z m-123.59619141-494.38476564c-23.07128932 0-41.19873022 18.12744166-41.19873021 41.19873099 0 13.18359399 6.59179662 24.71923828 16.47949193 32.95898387 0 67.56591822-92.2851565 123.59619141-164.79492162 123.5961914s-164.79492162-56.03027318-164.79492162-123.5961914c9.88769531-8.23974635 16.47949193-19.77539063 16.47949193-32.95898387 0-23.07128932-18.12744166-41.19873022-41.19873021-41.19873099S281.28710912 348.85302734 281.28710912 371.92431666c0 19.77539063 14.83154297 36.25488256 32.95898463 41.19873022 6.59179662 82.39746119 108.76464844 148.31542969 197.75390625 148.31542969s191.16210963-65.9179685 197.75390625-148.31542969c19.77539063-3.29589869 32.95898463-19.77539063 32.95898463-41.19873022 0-23.07128932-18.12744166-41.19873022-41.19873098-41.19873097z" fill="#707070" p-id="2398"></path></svg>