<?xml version="1.0" standalone="no"?><!DOCTYPE svg PUBLIC "-//W3C//DTD SVG 1.1//EN" "http://www.w3.org/Graphics/SVG/1.1/DTD/svg11.dtd"><svg t="1545404637345" class="icon" style="" viewBox="0 0 1024 1024" version="1.1" xmlns="http://www.w3.org/2000/svg" p-id="2787" xmlns:xlink="http://www.w3.org/1999/xlink" width="200" height="200"><defs><style type="text/css">@font-face { font-family: uc-nexus-iconfont; src: url("chrome-extension://pogijhnlcfmcppgimcaccdkmbedjkmhi/res/font_9qmmi8b8jsxxbt9.woff") format("woff"), url("chrome-extension://pogijhnlcfmcppgimcaccdkmbedjkmhi/res/font_9qmmi8b8jsxxbt9.ttf") format("truetype"); }
</style></defs><path d="M951.27734375 541.70703125c-24.9609375-34.98046875-74.97070313-54.93164063-124.89257813-49.921875-15.02929688 5.00976563-39.99023438 14.94140625-79.89257812 34.98046875-15.02929688 5.00976563-34.98046875 19.95117188-54.93164063 29.97070313 5.00976563-29.97070313-5.00976563-54.93164063-19.95117187-74.97070313-14.94140625-14.94140625-309.7265625-174.81445313-359.73632813-174.81445313-24.9609375 0-45 10.01953125-54.93164062 24.96093751h-10.01953125v-94.92187501H62v544.5703125h184.83398438v-79.89257812c84.90234375 34.98046875 284.765625 119.8828125 304.71679687 124.89257812 10.01953125 5.00976563 24.9609375 5.00976563 34.98046875 5.00976563 15.02929688 0 29.97070313-5.00976563 39.99023438-5.00976563 29.97070313-5.00976563 274.74609375-134.91210938 319.74609374-204.87304687 20.0390625-24.9609375 20.0390625-54.93164063 5.00976563-79.98046875zM196.91210937 731.63867188H112.00976562V287h84.90234376v444.63867188z m709.453125-134.91210938C866.375 651.65820313 646.56054688 771.54101563 616.58984375 776.55078125c-15.02929688 5.00976563-39.99023438 5.00976563-49.921875 0-15.02929688-5.00976563-209.79492188-84.90234375-319.74609375-134.91210938V381.921875H281.90234375l5.00976563-10.01953125s10.01953125-10.01953125 19.95117187-10.01953125c34.98046875 5.00976563 299.79492188 139.921875 324.75585938 164.8828125 10.01953125 10.01953125 10.01953125 24.9609375 10.01953124 39.99023438 0 5.00976563-5.00976563 15.02929688-10.01953125 15.02929687-15.02929688 10.01953125-29.97070313 10.01953125-34.98046875 10.01953125l-189.84374999-84.90234375-19.95117188 45 194.85351563 79.98046875c39.99023438 19.95117188 99.93164063-10.01953125 189.84374999-54.93164063 24.9609375-10.01953125 54.93164063-29.97070313 64.95117188-29.97070312 29.97070313-5.00976563 64.95117188 10.01953125 74.97070313 24.9609375-0.08789063 9.75585938-0.08789063 14.765625-5.09765626 24.78515625z m0 0" fill="#bfbfbf" p-id="2788"></path><path d="M611.58007813 386.84375c19.95117188 0 34.98046875-5.00976563 49.92187499-14.94140625l84.90234376 89.91210938c5.00976563 5.00976563 10.01953125 10.01953125 19.95117187 10.01953124 5.00976563 0 15.02929688-5.00976563 19.95117188-10.01953125 10.01953125-10.01953125 10.01953125-24.9609375 0-34.98046875l-29.8828125-29.97070312 19.95117187-19.95117188-34.98046875-34.98046875-24.9609375 19.95117188-19.95117187-19.95117188c10.01953125-14.94140625 15.02929688-29.97070313 15.02929687-49.921875 0-54.93164063-45-99.93164063-99.93164062-99.93164062s-99.93164063 45-99.93164063 99.93164063c0 49.921875 45 94.83398438 99.93164063 94.83398437z m-34.98046876-129.90234375c19.95117188-19.95117188 49.921875-19.95117188 64.95117188 0 19.95117188 19.95117188 19.95117188 49.921875 0 64.95117188-19.95117188 19.95117188-49.921875 19.95117188-64.95117188-1e-8-19.95117188-14.94140625-19.95117188-44.91210938 1e-8-64.95117187z m0 0" fill="#bfbfbf" p-id="2789"></path></svg>